<?xml version="1.0" encoding="UTF-8"?>
<svg xmlns="http://www.w3.org/2000/svg" xmlns:xlink="http://www.w3.org/1999/xlink" width="208px" height="63px" viewBox="0 0 208 63" version="1.1">
<g id="surface1">
<path style=" stroke:none;fill-rule:nonzero;fill:rgb(0%,0%,0%);fill-opacity:1;" d="M 25.972656 16.222656 C 24.863281 17.421875 23.429688 20.027344 22.703125 21.890625 C 21.070312 26.761719 19.042969 26.363281 19.042969 21.226562 C 19.042969 19.484375 18.914062 19.289062 18.066406 20.027344 C 16.429688 21.359375 16.886719 23.757812 19.042969 25.492188 L 21.070312 27.089844 L 18.851562 33.4375 L 16.695312 39.714844 L 12.644531 39.90625 C 9.246094 40.042969 8.589844 40.308594 8.589844 41.3125 C 8.589844 42.78125 10.617188 44.71875 12.121094 44.71875 C 12.773438 44.71875 14.085938 44.246094 15.0625 43.652344 C 16.695312 42.644531 17.019531 42.707031 20.878906 44.316406 C 25.257812 46.183594 28.125 46.511719 29.367188 45.25 C 30.675781 43.917969 30.289062 43.382812 27.808594 43.382812 C 25.839844 43.382812 18.589844 41.640625 17.878906 41.046875 C 17.746094 40.914062 18.398438 39.375 19.25 37.570312 C 20.089844 35.835938 21.332031 32.832031 21.925781 30.964844 C 22.96875 27.695312 23.164062 27.492188 25.972656 26.761719 C 29.628906 25.828125 31.785156 23.757812 32.835938 20.160156 C 33.492188 17.820312 33.492188 17.15625 32.511719 15.679688 C 30.941406 13.277344 28.523438 13.484375 25.972656 16.222656 Z M 31.335938 16.683594 C 31.597656 19.15625 28.855469 24.15625 26.367188 25.5625 C 25.195312 26.289062 24.078125 26.691406 23.882812 26.496094 C 23.359375 25.960938 26.304688 18.148438 27.738281 16.28125 C 29.304688 14.210938 31.070312 14.417969 31.335938 16.683594 Z M 13.691406 41.109375 C 14.480469 41.375 15.121094 41.773438 15.121094 42.039062 C 15.121094 42.308594 14.480469 42.78125 13.691406 43.179688 C 11.855469 44.050781 9.246094 43.179688 9.246094 41.710938 C 9.246094 40.644531 11.007812 40.441406 13.691406 41.109375 Z M 13.691406 41.109375 "/>
<path style=" stroke:none;fill-rule:nonzero;fill:rgb(0%,0%,0%);fill-opacity:1;" d="M 100.863281 15.144531 C 97.332031 16.417969 97.789062 17.214844 101.386719 16.015625 C 102.820312 15.546875 104.132812 15.277344 104.261719 15.410156 C 104.457031 15.546875 103.738281 17.617188 102.757812 20.027344 C 99.230469 28.433594 95.835938 39.980469 96.621094 40.78125 C 97.859375 42.039062 98.574219 40.914062 100.144531 34.636719 L 101.648438 28.566406 L 106.421875 28.832031 C 112.558594 29.234375 114.453125 30.496094 114.453125 33.972656 C 114.453125 36.105469 114.0625 36.976562 111.847656 38.902344 C 108.769531 41.773438 103.285156 43.578125 98.703125 43.242188 C 95.5 43.046875 94.726562 43.652344 96.285156 45.25 C 98.121094 47.117188 106.875 45.515625 111.257812 42.511719 C 114.132812 40.574219 116.421875 37.035156 116.421875 34.566406 C 116.421875 32.238281 113.273438 28.699219 111.257812 28.699219 C 109.035156 28.699219 109.164062 27.632812 111.507812 26.761719 C 115.632812 25.296875 117.589844 20.824219 115.691406 17.214844 C 114.0625 14.148438 106.550781 13.085938 100.863281 15.144531 Z M 111.847656 15.679688 C 115.171875 17.484375 115.039062 22.425781 111.507812 25.222656 C 109.949219 26.496094 102.953125 28.496094 102.296875 27.902344 C 101.910156 27.492188 103.738281 21.492188 105.308594 17.75 C 106.8125 14.34375 108.375 13.8125 111.847656 15.679688 Z M 111.847656 15.679688 "/>
<path style=" stroke:none;fill-rule:nonzero;fill:rgb(0%,0%,0%);fill-opacity:1;" d="M 57.144531 22.488281 C 56.6875 22.621094 56.292969 23.359375 56.292969 24.097656 C 56.292969 25.757812 58.644531 25.757812 59.503906 24.097656 C 60.480469 22.292969 59.371094 21.554688 57.144531 22.488281 Z M 57.144531 22.488281 "/>
<path style=" stroke:none;fill-rule:nonzero;fill:rgb(0%,0%,0%);fill-opacity:1;" d="M 81.980469 22.488281 C 81.519531 22.621094 81.125 23.359375 81.125 24.097656 C 81.125 25.757812 83.484375 25.757812 84.332031 24.097656 C 85.308594 22.292969 84.199219 21.554688 81.980469 22.488281 Z M 81.980469 22.488281 "/>
<path style=" stroke:none;fill-rule:nonzero;fill:rgb(0%,0%,0%);fill-opacity:1;" d="M 138.832031 27.429688 C 138.378906 27.902344 137.984375 28.832031 137.984375 29.5625 C 137.984375 32.105469 131.574219 39.375 129.355469 39.375 C 127.722656 39.375 127.660156 38.769531 128.902344 36.175781 C 131.191406 31.703125 130.011719 28.09375 126.609375 28.96875 C 123.738281 29.695312 122.949219 35.304688 125.371094 38.101562 C 126.148438 39.109375 126.019531 39.445312 124.191406 40.972656 C 122.621094 42.378906 121.976562 42.574219 121.25 41.980469 C 120.007812 40.914062 120.140625 38.902344 121.640625 35.507812 C 123.011719 32.433594 122.425781 31.839844 120.34375 34.164062 C 118.242188 36.503906 117.398438 40.441406 118.699219 42.441406 C 120.082031 44.585938 121.769531 44.449219 124.382812 42.113281 C 125.695312 40.972656 127.53125 40.113281 129.09375 39.90625 C 131.378906 39.640625 131.640625 39.773438 132.230469 41.507812 C 133.472656 45.117188 137.457031 45.785156 140.464844 42.972656 C 142.230469 41.3125 142.292969 40.972656 141.835938 37.96875 C 141.570312 36.175781 141.121094 34.371094 140.859375 33.972656 C 140.65625 33.570312 140.273438 31.765625 140.011719 29.898438 C 139.679688 27.296875 139.488281 26.761719 138.832031 27.429688 Z M 128.640625 33.097656 C 128.308594 36.503906 127.003906 38.636719 126.148438 37.242188 C 125.242188 35.777344 125.5 31.5 126.609375 30.433594 C 128.175781 28.761719 129.03125 29.898438 128.640625 33.097656 Z M 138.890625 34.105469 C 139.488281 37.109375 139.355469 40.707031 138.699219 40.707031 C 137.851562 40.707031 134.71875 38.042969 134.71875 37.304688 C 134.71875 36.503906 137.515625 32.03125 138.046875 32.03125 C 138.308594 32.03125 138.628906 32.964844 138.890625 34.105469 Z M 135.695312 39.375 C 136.347656 40.113281 137.390625 40.839844 138.113281 41.109375 C 139.09375 41.375 139.222656 41.710938 138.570312 42.441406 C 136.863281 44.585938 133.410156 42.707031 133.410156 39.640625 C 133.410156 37.703125 134.121094 37.570312 135.695312 39.375 Z M 135.695312 39.375 "/>
<path style=" stroke:none;fill-rule:nonzero;fill:rgb(0%,0%,0%);fill-opacity:1;" d="M 65.707031 29.960938 C 62.769531 31.292969 59.894531 34.636719 59.238281 37.507812 C 58.515625 40.378906 55.902344 42.378906 53.222656 42.113281 C 51.65625 41.980469 52.308594 37.375 54.402344 33.570312 C 55.507812 31.570312 56.234375 29.765625 56.03125 29.5 C 55.117188 28.628906 53.292969 30.566406 51.394531 34.503906 C 49.175781 39.167969 46.164062 42.707031 44.398438 42.707031 C 42.503906 42.707031 42.371094 41.242188 43.8125 36.976562 C 45.445312 32.371094 45.445312 32.03125 44.265625 32.03125 C 43.8125 32.03125 43.027344 32.90625 42.574219 34.03125 C 42.109375 35.097656 40.945312 37.375 39.890625 39.035156 C 35.910156 45.382812 33.027344 40.914062 36.496094 33.765625 C 37.152344 32.566406 37.210938 31.632812 36.816406 31.234375 C 35.910156 30.300781 34.277344 33.039062 33.359375 37.109375 C 32.707031 40.175781 32.707031 40.839844 33.683594 42.308594 C 35.125 44.585938 36.105469 44.511719 38.582031 41.90625 C 40.476562 39.980469 40.605469 39.90625 40.605469 41.242188 C 40.605469 42.914062 42.765625 44.316406 44.53125 43.710938 C 45.253906 43.445312 46.6875 42.574219 47.734375 41.710938 L 49.5625 40.113281 L 50.285156 41.710938 C 51.324219 43.980469 54.792969 43.980469 57.144531 41.773438 C 58.847656 40.175781 58.90625 40.175781 59.5625 41.445312 C 60.613281 43.382812 63.554688 43.046875 65.769531 40.707031 C 66.824219 39.640625 67.726562 38.839844 67.859375 38.976562 C 68.066406 39.109375 67.796875 40.441406 67.34375 41.90625 C 66.824219 43.917969 66.035156 44.851562 64.664062 45.445312 C 60.15625 47.382812 57.144531 52.59375 59.957031 53.660156 C 61.589844 54.324219 64.011719 52.324219 65.960938 48.851562 C 66.949219 47.179688 69.167969 44.378906 71.003906 42.574219 L 74.195312 39.445312 L 75.046875 41.445312 C 75.699219 43.046875 76.226562 43.382812 77.988281 43.382812 C 79.167969 43.382812 80.734375 42.914062 81.390625 42.378906 C 82.757812 41.3125 85.050781 38.042969 85.050781 37.109375 C 85.050781 36.769531 84.394531 37.507812 83.546875 38.769531 C 81.914062 41.242188 79.492188 42.78125 78.121094 42.246094 C 76.558594 41.640625 77.070312 37.4375 79.230469 33.570312 C 80.339844 31.570312 81.066406 29.765625 80.863281 29.5 C 79.957031 28.566406 78.121094 30.628906 76.164062 34.699219 C 74.328125 38.503906 70.351562 43.242188 69.5625 42.511719 C 69.429688 42.308594 69.953125 40.042969 70.742188 37.4375 C 71.457031 34.769531 71.980469 32.433594 71.777344 32.238281 C 70.933594 31.429688 69.5625 32.699219 69.167969 34.566406 C 68.644531 37.109375 64.589844 41.578125 63.03125 41.242188 C 61.328125 40.914062 61.589844 36.769531 63.421875 34.105469 C 65.1875 31.632812 68.382812 29.765625 70.148438 30.226562 C 70.933594 30.496094 71.328125 30.300781 71.136719 29.828125 C 70.742188 28.566406 68.585938 28.628906 65.707031 29.960938 Z M 65.453125 46.378906 C 65.453125 48.449219 61.398438 53.125 60.289062 52.386719 C 59.039062 51.660156 59.503906 50.65625 61.921875 48.316406 C 64.011719 46.246094 65.453125 45.515625 65.453125 46.378906 Z M 65.453125 46.378906 "/>
<path style=" stroke:none;fill-rule:nonzero;fill:rgb(0%,0%,0%);fill-opacity:1;" d="M 150.527344 31.027344 C 148.761719 32.566406 143.800781 40.574219 145.175781 39.714844 C 145.492188 39.507812 145.886719 40.246094 146.148438 41.375 C 146.601562 43.652344 148.105469 44.71875 150.789062 44.71875 C 152.683594 44.71875 156.925781 42.175781 156.925781 41.046875 C 156.925781 40.644531 157.519531 41.375 158.234375 42.511719 C 158.953125 43.710938 159.808594 44.71875 160.203125 44.71875 C 161.503906 44.71875 164.636719 42.78125 164.972656 41.710938 C 165.550781 40.308594 166.535156 40.441406 166.925781 42.039062 C 167.132812 42.78125 167.714844 43.578125 168.296875 43.785156 C 169.871094 44.378906 173.792969 41.980469 175.425781 39.375 C 176.796875 37.109375 176.796875 37.109375 174.183594 39.847656 C 170.0625 44.316406 167.449219 43.109375 170 38.042969 C 171.5625 34.964844 171.5625 34.503906 170.453125 34.832031 C 169.929688 34.964844 168.238281 36.707031 166.609375 38.707031 C 164.503906 41.3125 163.269531 42.378906 162.097656 42.378906 C 160.789062 42.378906 160.527344 42.039062 160.65625 40.574219 C 161.050781 34.105469 169.15625 26.761719 170.390625 31.703125 C 170.847656 33.632812 171.957031 33.972656 171.957031 32.167969 C 171.957031 30.363281 170.65625 29.367188 168.429688 29.367188 C 165.496094 29.367188 162.347656 31.632812 160.335938 35.171875 C 159.351562 36.902344 157.453125 39.445312 156.148438 40.839844 C 154.054688 43.109375 153.398438 43.445312 151.25 43.242188 C 148.828125 43.046875 148.761719 42.972656 148.566406 40.175781 C 148.4375 38.175781 148.761719 36.574219 149.808594 34.699219 C 151.375 31.839844 153.925781 29.695312 154.972656 30.363281 C 155.886719 30.964844 155.753906 32.964844 154.839844 33.972656 C 154.125 34.636719 154.257812 34.769531 155.296875 34.566406 C 156.28125 34.433594 156.605469 33.835938 156.605469 32.03125 C 156.605469 29.898438 156.414062 29.695312 154.574219 29.5 C 153.148438 29.367188 151.96875 29.828125 150.527344 31.027344 Z M 150.527344 31.027344 "/>
</g>
</svg>
